<?xml version="1.0" encoding="utf-8"?>
<!-- Generator: Adobe Illustrator 22.0.0, SVG Export Plug-In . SVG Version: 6.00 Build 0)  -->
<svg version="1.1" id="Layer_1" xmlns="http://www.w3.org/2000/svg" xmlns:xlink="http://www.w3.org/1999/xlink" x="0px" y="0px"
	 viewBox="0 0 792 612" style="enable-background:new 0 0 792 612;" xml:space="preserve">
<style type="text/css">
	.st0{fill:#FFFFFF;stroke:#FFFFFF;stroke-miterlimit:10;}
	.st1{fill:#FFFFFF;stroke:#FFFFFF;stroke-width:8;stroke-miterlimit:10;}
</style>
<g>
	<g>
		<path class="st0" d="M291.6,215.4h12.6c11.5,0,16.6,4.7,16.6,14.5v4c0,9.1-2.9,16.3-17.2,16.3h-6.1v29.9h-5.9V215.4z M297.5,246.1
			h5.8c10.1,0,11.5-5.1,11.5-12.1v-3.7c0-5.6-1.7-10.7-11-10.7h-6.3V246.1z"/>
		<path class="st0" d="M333.9,256.3v8.5c0,5.6,1.3,11.8,8.3,11.8c6.5,0,7.9-4,7.9-9.5v-0.5h5.9v0.4c0,6-1.8,13.8-13.9,13.8
			c-10.8,0-14.1-6-14.1-15.9v-19.7c0-7.9,3.7-14.7,14.3-14.7c10.9,0,13.8,6.9,13.8,14.8c0,2.5,0,8.2,0,10.9H333.9z M350.3,252.2
			v-6.9c0-4.6-0.6-10.5-8-10.5c-7.1,0-8.3,4.9-8.3,10.6v6.8H350.3z"/>
		<path class="st0" d="M365.8,248c0-7.7,0-12.8-0.1-16.6h5.7c0.1,1.5,0.3,3.7,0.3,7.4c2.1-5.6,7.3-7.9,12.4-8v5.9
			c-8,0.1-12.4,5-12.4,13v30.5h-5.9V248z"/>
		<path class="st0" d="M392.9,266.2v2.1c0,5.9,3.3,8.4,8,8.4c5.6,0,7.7-2.8,7.7-8.2c0-5.8-2.2-8.1-8.8-11.7
			c-8-4.3-11.7-7.6-11.7-14.3c0-6.5,3.5-11.9,13.1-11.9c10.3,0,12.7,5.8,12.7,12v2.4H408v-2.5c0-4.7-1.6-7.7-7.1-7.7
			c-4.8,0-6.8,2.6-6.8,7.2c0,4.5,1.7,6.5,8.2,10.1c7.8,4.2,12.3,7.5,12.3,15.6c0,8.5-4.4,13.2-14.2,13.2c-10.7,0-13.7-6-13.7-12.5
			v-2.2H392.9z"/>
		<path class="st0" d="M450.9,244.4V266c0,10.7-6.1,14.9-14.7,14.9c-8.5,0-14.3-4-14.3-14.5v-22c0-8.5,5.3-13.8,14.7-13.8
			C446.2,230.6,450.9,235.9,450.9,244.4z M427.9,244.5v22.1c0,6.3,2.8,10.1,8.4,10.1c5.2,0,8.5-2.7,8.5-10.1v-22
			c0-5.5-2.5-9.5-8.4-9.5C430.4,234.9,427.9,238.4,427.9,244.5z"/>
		<path class="st0" d="M461.1,246.1c0-9.7,0-12.1-0.1-14.7h5.6c0.1,1.1,0.3,2.6,0.3,5.2c1.8-4.1,5.7-6,11.1-6
			c6.2,0,11.7,2.7,11.7,11.4v38.1h-5.9V243c0-4.9-2-7.9-7.2-7.9c-5.7,0-9.5,2.2-9.5,13.2v31.8h-5.9V246.1z"/>
		<path class="st0" d="M527.1,272.8c0,3.5,0.1,6.2,0.2,7.3h-5.7c-0.3-1.4-0.5-3.3-0.5-4.2c-1.9,4-6,5-9.9,5
			c-8.6,0-11.9-5.9-11.9-13.5v-0.9c0-10.3,7.5-14.7,18.2-14.7c1.2,0,2.1,0,3.5,0V243c0-4.8-1.2-8.1-6.8-8.1c-5.5,0-7.2,3.3-7.2,7.7
			v1.7h-5.9v-1.6c0-6.6,3.3-12.1,13.3-12.1c9.8,0,12.6,5.4,12.6,12.1V272.8z M521.2,255.9c-0.9,0-2.6,0-3.7,0
			c-7.9,0-12.3,2.8-12.3,10.5v0.9c0,5,1.8,9.3,7.3,9.3c6.7,0,8.7-4.5,8.7-12.3V255.9z"/>
		<path class="st0" d="M539.2,280.1v-67.6h5.9v67.6H539.2z"/>
		<path class="st0" d="M319.9,342.8v2c0,8.8-2.1,16.9-15,16.9c-13.3,0-15.2-8.3-15.2-17.5V311c0-10.6,5.5-15.7,15.3-15.7
			c12.5,0,14.6,7.5,14.6,15.6v2.3h-6.2v-2.3c0-5.7-0.8-11.2-8.7-11.2c-7.3,0-9,4.9-9,11.4v33.2c0,8.1,2.3,13,9.3,13
			c7.6,0,8.7-5.4,8.7-12.4v-2.1H319.9z"/>
		<path class="st0" d="M356.7,348.4c0,5.7,0,10.3,0.1,12.4h-5.6c-0.1-0.8-0.3-3.4-0.3-5.4c-1.7,4.5-5.3,6.2-10.7,6.2
			c-4.5,0-11.7-1.1-11.7-12.3v-37.2h5.9v36c0,6.7,2.2,9.1,7.3,9.1c4.5,0,8.9-2.1,8.9-13.5v-31.6h5.9V348.4z"/>
		<path class="st0" d="M368.7,328.7c0-7.7,0-12.8-0.1-16.6h5.7c0.1,1.5,0.3,3.7,0.3,7.4c2.1-5.6,7.3-7.9,12.4-8v5.9
			c-8,0.1-12.4,5-12.4,13v30.5h-5.9V328.7z"/>
		<path class="st0" d="M419,353.5c0,3.5,0.1,6.2,0.2,7.3h-5.7c-0.3-1.4-0.5-3.3-0.5-4.2c-1.9,4-6,5-9.9,5c-8.6,0-11.9-5.9-11.9-13.5
			v-0.9c0-10.3,7.5-14.7,18.2-14.7c1.2,0,2.1,0,3.5,0v-8.8c0-4.8-1.2-8.1-6.8-8.1c-5.5,0-7.2,3.3-7.2,7.7v1.7h-5.9v-1.6
			c0-6.6,3.3-12.1,13.3-12.1c9.8,0,12.6,5.4,12.6,12.1V353.5z M413.1,336.5c-0.9,0-2.6,0-3.7,0c-7.9,0-12.3,2.8-12.3,10.5v0.9
			c0,5,1.8,9.3,7.3,9.3c6.7,0,8.7-4.5,8.7-12.3V336.5z"/>
		<path class="st0" d="M437.7,300.5h-13.2v-4.4h32.1v4.4h-13v60.3h-5.9V300.5z"/>
		<path class="st0" d="M489.3,325.1v21.6c0,10.7-6.1,14.9-14.7,14.9c-8.5,0-14.3-4-14.3-14.5v-22c0-8.5,5.3-13.8,14.7-13.8
			C484.7,311.3,489.3,316.6,489.3,325.1z M466.3,325.1v22.1c0,6.3,2.8,10.1,8.4,10.1c5.2,0,8.5-2.7,8.5-10.1v-22
			c0-5.5-2.5-9.5-8.4-9.5C468.8,315.6,466.3,319.1,466.3,325.1z"/>
		<path class="st0" d="M527.6,348.4c0,5.7,0,10.3,0.1,12.4h-5.6c-0.1-0.8-0.3-3.4-0.3-5.4c-1.7,4.5-5.3,6.2-10.7,6.2
			c-4.5,0-11.7-1.1-11.7-12.3v-37.2h5.9v36c0,6.7,2.2,9.1,7.3,9.1c4.5,0,8.9-2.1,8.9-13.5v-31.6h5.9V348.4z"/>
		<path class="st0" d="M539.6,328.7c0-7.7,0-12.8-0.1-16.6h5.7c0.1,1.5,0.3,3.7,0.3,7.4c2.1-5.6,7.3-7.9,12.4-8v5.9
			c-8,0.1-12.4,5-12.4,13v30.5h-5.9V328.7z"/>
	</g>
</g>
<line class="st1" x1="388" y1="33.5" x2="203.2" y2="271.6"/>
<line class="st1" x1="203.1" y1="271.4" x2="396" y2="540.6"/>
<line class="st1" x1="591.4" y1="344.6" x2="395.5" y2="537.2"/>
</svg>
