<?xml version="1.0" encoding="utf-8"?>
<!-- Generator: Adobe Illustrator 22.0.0, SVG Export Plug-In . SVG Version: 6.00 Build 0)  -->
<svg version="1.1" id="Layer_1" xmlns="http://www.w3.org/2000/svg" xmlns:xlink="http://www.w3.org/1999/xlink" x="0px" y="0px"
	 viewBox="0 0 192.5 163.1" style="enable-background:new 0 0 192.5 163.1;" xml:space="preserve">
<style type="text/css">
	.st0{stroke:#000000;stroke-width:4;stroke-miterlimit:10;}
	.st1{fill:#FFFFFF;}
</style>
<g>
	<g>
	</g>
</g>
<path class="st0" d="M2.2,90.6"/>
<path class="st0" d="M55.1,1"/>
<path class="st0" d="M69.3,161.7"/>
<path class="st0" d="M1.5,86.8"/>
<path class="st0" d="M110.9,96.7"/>
<path class="st0" d="M65.8,161"/>
<g>
	<g>
	</g>
</g>
<g>
	<path class="st1" d="M36.7,24.1h-6.6v48.2h3.1V50h3.2c7.4,0,8.9-5.4,8.9-12.1v-3C45.3,27.6,42.6,24.1,36.7,24.1z M42.2,37.9
		c0,5.2-0.7,9-6,9h-3V27.2h3.3c4.8,0,5.7,3.8,5.7,8V37.9z"/>
	<path class="st1" d="M56.6,72.9c6.3,0,7.2-5.8,7.2-10.3v-0.3h-3.1v0.4c0,4.1-0.7,7.1-4.1,7.1c-3.6,0-4.3-4.6-4.3-8.8v-6.4h11.5
		c0-2,0-6.3,0-8.2c0-5.8-1.5-11-7.1-11c-5.5,0-7.5,5.1-7.5,11V61C49.3,68.4,51,72.9,56.6,72.9z M52.4,46.4c0-4.2,0.6-7.9,4.3-7.9
		c3.8,0,4.2,4.4,4.2,7.8v5.1h-8.5V46.4z"/>
	<path class="st1" d="M68.9,72.3H72V49.6c0-5.9,2.3-9.6,6.4-9.7v-4.4c-2.7,0.1-5.4,1.8-6.5,6c0-2.8-0.1-4.4-0.1-5.5h-3
		c0.1,2.9,0.1,6.7,0.1,12.4V72.3z"/>
	<path class="st1" d="M87.6,72.9c5.1,0,7.4-3.5,7.4-9.8c0-6-2.4-8.5-6.4-11.6c-3.4-2.6-4.3-4.1-4.3-7.5c0-3.4,1-5.4,3.6-5.4
		c2.9,0,3.7,2.3,3.7,5.7v1.8h3v-1.8c0-4.6-1.3-8.9-6.6-8.9c-5,0-6.8,4.1-6.8,8.9c0,4.9,1.9,7.4,6.1,10.6c3.5,2.7,4.6,4.4,4.6,8.7
		c0,4-1.1,6.1-4,6.1c-2.4,0-4.1-1.8-4.1-6.3v-1.6h-3.2v1.7C80.5,68.4,82,72.9,87.6,72.9z"/>
	<path class="st1" d="M106.5,72.9c4.5,0,7.6-3.2,7.6-11.1V45.7c0-6.3-2.4-10.3-7.4-10.3c-4.9,0-7.6,3.9-7.6,10.3V62
		C99.1,69.9,102.1,72.9,106.5,72.9z M102.2,45.7c0-4.5,1.3-7.1,4.4-7.1c3.1,0,4.4,3,4.4,7.1v16.4c0,5.5-1.7,7.5-4.4,7.5
		c-2.9,0-4.4-2.8-4.4-7.5V45.7z"/>
	<path class="st1" d="M134.3,72.3V43.9c0-6.5-2.9-8.5-6.1-8.5c-2.8,0-4.8,1.4-5.8,4.4c0-1.9-0.1-3.1-0.1-3.9h-2.9
		c0.1,1.9,0.1,3.7,0.1,11v25.4h3.1V48.6c0-8.2,2-9.9,4.9-9.9c2.7,0,3.8,2.2,3.8,5.9v27.6H134.3z"/>
	<path class="st1" d="M153.4,66.8V44.4c0-5-1.4-9-6.5-9c-5.2,0-6.9,4.1-6.9,9v1.2h3.1v-1.2c0-3.3,0.9-5.8,3.7-5.8
		c2.9,0,3.5,2.4,3.5,6v6.5c-0.8,0-1.2,0-1.8,0c-5.6,0-9.5,3.3-9.5,11v0.6c0,5.7,1.8,10.1,6.2,10.1c2.1,0,4.2-0.7,5.2-3.7
		c0,0.7,0.1,2.1,0.3,3.2h2.9C153.5,71.4,153.4,69.4,153.4,66.8z M150.4,60.4c0,5.8-1.1,9.2-4.5,9.2c-2.8,0-3.8-3.2-3.8-6.9V62
		c0-5.7,2.3-7.8,6.4-7.8c0.5,0,1.4,0,1.9,0V60.4z"/>
	<rect x="159.8" y="21.9" class="st1" width="3.1" height="50.4"/>
	<path class="st1" d="M41.6,120.5c0,5.2-0.6,9.2-4.5,9.2c-3.6,0-4.8-3.7-4.8-9.7V95.4c0-4.9,0.9-8.5,4.7-8.5c4.1,0,4.5,4.1,4.5,8.4
		v1.7h3.2v-1.7c0-6.1-1.1-11.6-7.6-11.6c-5.1,0-7.9,3.8-7.9,11.7V120c0,6.9,1,13,7.9,13c6.7,0,7.8-6,7.8-12.6V119h-3.2V120.5z"/>
	<path class="st1" d="M64.2,96.1h-3.1v23.5c0,8.5-2.3,10.1-4.6,10.1c-2.7,0-3.8-1.8-3.8-6.8V96.1h-3.1v27.7c0,8.3,3.7,9.1,6.1,9.1
		c2.8,0,4.7-1.2,5.5-4.6c0,1.5,0.1,3.4,0.1,4h2.9c-0.1-1.6-0.1-5-0.1-9.2V96.1z"/>
	<path class="st1" d="M73.5,101.6c0-2.8-0.1-4.4-0.1-5.5h-3c0.1,2.9,0.1,6.7,0.1,12.4v23.9h3.1v-22.7c0-5.9,2.3-9.6,6.4-9.7v-4.4
		C77.3,95.8,74.6,97.5,73.5,101.6z"/>
	<path class="st1" d="M96,104.6c0-5-1.4-9-6.5-9c-5.2,0-6.9,4.1-6.9,9v1.2h3.1v-1.2c0-3.3,0.9-5.8,3.7-5.8c2.9,0,3.5,2.4,3.5,6v6.5
		c-0.8,0-1.2,0-1.8,0c-5.6,0-9.5,3.3-9.5,11v0.6c0,5.7,1.8,10.1,6.2,10.1c2.1,0,4.2-0.7,5.2-3.7c0,0.7,0.1,2.1,0.3,3.2h2.9
		c-0.1-0.8-0.1-2.9-0.1-5.5V104.6z M92.9,120.5c0,5.8-1.1,9.2-4.5,9.2c-2.8,0-3.8-3.2-3.8-6.9v-0.6c0-5.7,2.3-7.8,6.4-7.8
		c0.5,0,1.4,0,1.9,0V120.5z"/>
	<polygon class="st1" points="112.6,84.2 95.9,84.2 95.9,87.5 102.7,87.5 102.7,132.4 105.8,132.4 105.8,87.5 112.6,87.5 	"/>
	<path class="st1" d="M119.9,95.5c-4.9,0-7.6,3.9-7.6,10.3v16.4c0,7.8,3,10.8,7.5,10.8c4.5,0,7.6-3.2,7.6-11.1v-16.1
		C127.3,99.5,124.9,95.5,119.9,95.5z M124.2,122.3c0,5.5-1.7,7.5-4.4,7.5c-2.9,0-4.4-2.8-4.4-7.5v-16.4c0-4.5,1.3-7.1,4.4-7.1
		c3.1,0,4.4,3,4.4,7.1V122.3z"/>
	<path class="st1" d="M147.2,96.1h-3.1v23.5c0,8.5-2.3,10.1-4.6,10.1c-2.7,0-3.8-1.8-3.8-6.8V96.1h-3.1v27.7c0,8.3,3.7,9.1,6.1,9.1
		c2.8,0,4.7-1.2,5.5-4.6c0,1.5,0.1,3.4,0.1,4h2.9c-0.1-1.6-0.1-5-0.1-9.2V96.1z"/>
	<path class="st1" d="M156.5,101.6c0-2.8-0.1-4.4-0.1-5.5h-3c0.1,2.9,0.1,6.7,0.1,12.4v23.9h3.1v-22.7c0-5.9,2.3-9.6,6.4-9.7v-4.4
		C160.3,95.8,157.6,97.5,156.5,101.6z"/>
</g>
</svg>
